<svg width="225" height="214" viewBox="0 0 225 214" fill="none" xmlns="http://www.w3.org/2000/svg">
<path d="M105.973 4.84035C108.283 -1.12007 116.717 -1.12009 119.027 4.84033L143.6 68.2412C144.593 70.8037 146.994 72.548 149.738 72.7007L217.629 76.4788C224.011 76.834 226.617 84.8548 221.663 88.8937L168.958 131.856C166.828 133.592 165.911 136.414 166.614 139.071L184 204.807C185.635 210.987 178.812 215.944 173.439 212.48L116.293 175.631C113.984 174.142 111.016 174.142 108.707 175.631L51.5607 212.48C46.1883 215.944 39.3654 210.987 40.9999 204.807L58.3863 139.071C59.089 136.414 58.172 133.592 56.0418 131.856L3.33737 88.8937C-1.61746 84.8548 0.98865 76.834 7.37122 76.4788L75.2624 72.7007C78.0064 72.548 80.4072 70.8037 81.4004 68.2412L105.973 4.84035Z" fill="#FFE485"/>
</svg>
