<svg width="700" height="700" viewBox="0 0 700 700" fill="none" xmlns="http://www.w3.org/2000/svg">
<rect width="700" height="700" rx="350" fill="#D9D9D9"/>
<rect width="700" height="700" rx="350" fill="#FEBF44"/>
<path d="M78.3964 273.321C66.3235 269.968 59.1728 257.426 63.4193 245.638C81.888 194.371 113.91 148.895 156.261 114.161C198.612 79.4268 249.476 56.9237 303.366 48.8454C315.757 46.988 326.657 56.4551 327.582 68.9505V68.9505C328.506 81.4459 319.099 92.223 306.733 94.244C262.166 101.528 220.157 120.439 185.035 149.244C149.913 178.05 123.146 215.546 107.281 257.825C102.879 269.556 90.4692 276.673 78.3964 273.321V273.321Z" fill="#EEEEEE"/>
</svg>
