<svg width="500" height="500" viewBox="0 0 500 500" fill="none" xmlns="http://www.w3.org/2000/svg">
<rect width="500" height="500" rx="250" fill="#D9D9D9"/>
<rect width="500" height="500" rx="250" fill="#FE8744"/>
<path d="M55.9974 195.229C47.374 192.835 42.2663 183.876 45.2995 175.456C58.4915 138.836 81.3646 106.353 111.615 81.5434C141.865 56.7334 178.197 40.6598 216.69 34.8896C225.541 33.5628 233.327 40.3251 233.987 49.2504V49.2504C234.647 58.1757 227.928 65.8736 219.095 67.3171C187.262 72.52 157.255 86.0275 132.168 106.603C107.08 127.178 87.9615 153.961 76.6293 184.161C73.485 192.54 64.6209 197.623 55.9974 195.229V195.229Z" fill="#EEEEEE"/>
</svg>
