<svg width="300" height="300" viewBox="0 0 300 300" fill="none" xmlns="http://www.w3.org/2000/svg">
<rect width="300" height="300" rx="150" fill="#D9D9D9"/>
<rect width="300" height="300" rx="150" fill="#FAFE44"/>
<path d="M33.5984 117.137C28.4244 115.701 25.3598 110.326 27.1797 105.274C35.0949 83.3019 48.8188 63.812 66.969 48.926C85.1192 34.0401 106.918 24.3959 130.014 20.9338C135.324 20.1377 139.996 24.195 140.392 29.5502V29.5502C140.788 34.9054 136.757 39.5241 131.457 40.3903C112.357 43.512 94.3529 51.6165 79.3006 63.9617C64.2482 76.307 52.7769 92.3768 45.9776 110.497C44.091 115.524 38.7725 118.574 33.5984 117.137V117.137Z" fill="#EEEEEE"/>
</svg>
