<svg width="400" height="400" viewBox="0 0 400 400" fill="none" xmlns="http://www.w3.org/2000/svg">
<rect width="400" height="400" rx="200" fill="#D9D9D9"/>
<rect width="400" height="400" rx="200" fill="#44D1FE"/>
<path d="M44.7979 156.183C37.8992 154.268 33.813 147.101 36.2396 140.365C46.7932 111.069 65.0917 85.0827 89.292 65.2347C113.492 45.3867 142.557 32.5278 173.352 27.9117C180.433 26.8503 186.661 32.26 187.19 39.4003V39.4003C187.718 46.5405 182.342 52.6988 175.276 53.8537C149.809 58.016 125.804 68.822 105.734 85.2823C85.6643 101.743 70.3692 123.169 61.3034 147.329C58.788 154.032 51.6967 158.099 44.7979 156.183V156.183Z" fill="#EEEEEE"/>
</svg>
