<svg width="600" height="600" viewBox="0 0 600 600" fill="none" xmlns="http://www.w3.org/2000/svg">
<rect width="600" height="600" rx="300" fill="#D9D9D9"/>
<rect width="600" height="600" rx="300" fill="#C244FE"/>
<path d="M67.1969 234.275C56.8488 231.402 50.7195 220.651 54.3594 210.547C70.1898 166.604 97.6375 127.624 133.938 97.8521C170.238 68.0801 213.836 48.7917 260.028 41.8675C270.649 40.2754 279.992 48.3901 280.784 59.1004V59.1004C281.577 69.8108 273.513 79.0483 262.914 80.7806C224.714 87.024 188.706 103.233 158.601 127.923C128.496 152.614 105.554 184.754 91.9551 220.993C88.182 231.048 77.545 237.148 67.1969 234.275V234.275Z" fill="#EEEEEE"/>
</svg>
