<svg width="800" height="800" viewBox="0 0 800 800" fill="none" xmlns="http://www.w3.org/2000/svg">
<rect width="800" height="800" rx="400" fill="#D9D9D9"/>
<rect width="800" height="800" rx="400" fill="#4AB916"/>
<path d="M89.5959 312.366C75.7983 308.535 67.626 294.201 72.4792 280.729C93.5863 222.138 130.183 170.165 178.584 130.469C226.985 90.7735 285.115 65.0556 346.704 55.8233C360.865 53.7005 373.322 64.5201 374.379 78.8006V78.8006C375.436 93.081 364.684 105.398 350.552 107.707C299.619 116.032 251.608 137.644 211.468 170.565C171.329 203.485 140.738 246.338 122.607 294.657C117.576 308.064 103.393 316.198 89.5959 312.366V312.366Z" fill="#EEEEEE"/>
</svg>
