<svg width="100" height="100" viewBox="0 0 100 100" fill="none" xmlns="http://www.w3.org/2000/svg">
<rect width="100" height="100" rx="50" fill="#D9D9D9"/>
<rect width="100" height="100" rx="50" fill="#7F44FE"/>
<path d="M11.1995 39.0458C9.47479 38.5669 8.45325 36.7752 9.0599 35.0912C11.6983 27.7673 16.2729 21.2707 22.323 16.3087C28.3731 11.3467 35.6394 8.13195 43.338 6.97792C45.1081 6.71257 46.6653 8.06501 46.7974 9.85007V9.85007C46.9295 11.6351 45.5855 13.1747 43.819 13.4634C37.4524 14.504 31.451 17.2055 26.4335 21.3206C21.4161 25.4357 17.5923 30.7923 15.3259 36.8322C14.697 38.508 12.9242 39.5247 11.1995 39.0458V39.0458Z" fill="#EEEEEE"/>
</svg>
